<svg xmlns="http://www.w3.org/2000/svg" viewBox="0 0 300 300" width="512" height="512"><g fill="none" stroke-width="1.211"><path d="M50.011 263.412L27.657 12.694h245.624L250.906 263.37l-100.587 27.886zm0 0" fill="#1572b6"/><path d="M150.47 269.943l81.278-22.534L250.87 33.194h-100.4zm0 0" fill="#33a9dc"/><path d="M150.47 124.028h40.69l2.809-31.489h-43.5V61.79h77.106l-.737 8.25-7.557 84.737h-68.812zm0 0" fill="#fff"/><path d="M150.654 203.886l-.135.037-34.246-9.247-2.19-24.523H83.217l4.307 48.28 62.988 17.486.142-.04zm0 0" fill="#ebebeb"/><path d="M188.546 153.474l-3.703 41.182-34.295 9.256v31.992l63.038-17.471.462-5.194 5.349-59.765zm0 0" fill="#fff"/><path d="M150.576 61.79v30.75H76.303l-.618-6.912-1.401-15.588-.735-8.25zm-.106 62.242v30.749h-33.812l-.617-6.91-1.402-15.59-.735-8.25zm0 0" fill="#ebebeb"/></g></svg>
